  0
SECTION
  2
HEADER
  9
$ACADVER
  1
AC1009
  9
$INSBASE
 10
0.0
 20
0.0
 30
0.0
  9
$EXTMIN
 10
0.0
 20
0.0
 30
0.0
  9
$EXTMAX
 10
0.0
 20
0.0
 30
0.0
  0
ENDSEC
  0
SECTION
  2
TABLES
  0
TABLE
  2
VPORT
 70
0
  0
ENDTAB
  0
TABLE
  2
LTYPE
 70
1
  0
LTYPE
  2
CONTINUOUS
 70
0
  3
Solid line
 72
65
 73
0
 40
0.0
  0
ENDTAB
  0
TABLE
  2
LAYER
 70
1
  0
LAYER
  2
0
 70
64
 62
7
  6
continuous
  0
ENDTAB
  0
TABLE
  2
STYLE
 70
1
  0
STYLE
  2
STANDARD
 70
0
 40
0
 41
1.0
 50
0.0
 71
0
 42
1
 3
ARIAL.TTF
 4

  0
ENDTAB
  0
TABLE
  2
VIEW
 70
0
  0
ENDTAB
  0
ENDSEC
  0
SECTION
  2
BLOCKS
  0
BLOCK
  8
0
  2
SHAPE2DVIEW001
 70
0
 10
0.0
 20
0.0
 30
0.0
  3
SHAPE2DVIEW001
  0
LINE
  8
0
 62
0
 10
-828.016314206
 20
400.437916409
 30
0.0
 11
-577.784863459
 21
833.851502753
 31
0.0
  0
ARC
  8
0
 62
0
 10
-793.375298054
 20
380.437916409
 30
0.0
 40
40.0
 50
150.0
 51
-150.0
  0
ARC
  8
0
 62
0
 10
-543.143847308
 20
813.851502753
 30
0.0
 40
40.0
 50
90.0
 51
150.0
  0
LINE
  8
0
 62
0
 10
-784.872466898
 20
285.710580838
 30
0.0
 11
-828.016314206
 21
360.437916409
 31
0.0
  0
LINE
  8
0
 62
0
 10
-543.143847308
 20
853.851502753
 30
0.0
 11
-456.856152692
 21
853.851502753
 31
0.0
  0
ARC
  8
0
 62
0
 10
-750.231450746
 20
305.710580838
 30
0.0
 40
40.0
 50
-150.0
 51
-90.0
  0
ARC
  8
0
 62
0
 10
-456.856152692
 20
813.851502753
 30
0.0
 40
40.0
 50
30.0
 51
90.0
  0
LINE
  8
0
 62
0
 10
-249.768549254
 20
265.710580838
 30
0.0
 11
-750.231450746
 21
265.710580838
 31
0.0
  0
LINE
  8
0
 62
0
 10
-422.215136541
 20
833.851502753
 30
0.0
 11
-171.983685794
 21
400.437916409
 31
0.0
  0
ARC
  8
0
 62
0
 10
-249.768549254
 20
305.710580838
 30
0.0
 40
40.0
 50
-90.0
 51
-30.0
  0
ARC
  8
0
 62
0
 10
-206.624701946
 20
380.437916409
 30
0.0
 40
40.0
 50
-30.0
 51
30.0
  0
LINE
  8
0
 62
0
 10
-171.983685794
 20
360.437916409
 30
0.0
 11
-215.127533102
 21
285.710580838
 31
0.0
  0
CIRCLE
  8
0
 62
0
 10
-500.0
 20
709.0
 30
0.0
 40
1.1
  0
CIRCLE
  8
0
 62
0
 10
-680.999309391
 20
604.5
 30
0.0
 40
1.1
  0
CIRCLE
  8
0
 62
0
 10
-575.0
 20
556.5
 30
0.0
 40
2.0
  0
LINE
  8
0
 62
0
 10
-508.660254038
 20
429.155215646
 30
0.0
 11
-491.339745962
 21
429.155215646
 31
0.0
  0
LINE
  8
0
 62
0
 10
-517.320508076
 20
444.155215646
 30
0.0
 11
-508.660254038
 21
429.155215646
 31
0.0
  0
LINE
  8
0
 62
0
 10
-491.339745962
 20
429.155215646
 30
0.0
 11
-482.679491924
 21
444.155215646
 31
0.0
  0
LINE
  8
0
 62
0
 10
-508.660254038
 20
459.155215646
 30
0.0
 11
-517.320508076
 21
444.155215646
 31
0.0
  0
LINE
  8
0
 62
0
 10
-482.679491924
 20
444.155215646
 30
0.0
 11
-491.339745962
 21
459.155215646
 31
0.0
  0
LINE
  8
0
 62
0
 10
-491.339745962
 20
459.155215646
 30
0.0
 11
-508.660254038
 21
459.155215646
 31
0.0
  0
CIRCLE
  8
0
 62
0
 10
-575.0
 20
506.5
 30
0.0
 40
2.0
  0
CIRCLE
  8
0
 62
0
 10
-680.999309391
 20
395.5
 30
0.0
 40
1.1
  0
CIRCLE
  8
0
 62
0
 10
-181.576848599
 20
397.053761792
 30
0.0
 40
3.25
  0
CIRCLE
  8
0
 62
0
 10
-319.000690609
 20
395.5
 30
0.0
 40
1.1
  0
CIRCLE
  8
0
 62
0
 10
-513.0
 20
409.0
 30
0.0
 40
1.2
  0
CIRCLE
  8
0
 62
0
 10
-371.0
 20
409.0
 30
0.0
 40
1.2
  0
CIRCLE
  8
0
 62
0
 10
-319.000690609
 20
604.5
 30
0.0
 40
1.1
  0
CIRCLE
  8
0
 62
0
 10
-425.0
 20
556.5
 30
0.0
 40
2.0
  0
CIRCLE
  8
0
 62
0
 10
-425.0
 20
506.5
 30
0.0
 40
2.0
  0
CIRCLE
  8
0
 62
0
 10
-305.759665205
 20
612.144709581
 30
0.0
 40
3.25
  0
CIRCLE
  8
0
 62
0
 10
-694.240334795
 20
612.144709581
 30
0.0
 40
3.25
  0
CIRCLE
  8
0
 62
0
 10
-818.423151401
 20
397.053761792
 30
0.0
 40
3.25
  0
CIRCLE
  8
0
 62
0
 10
-570.057518188
 20
827.235657371
 30
0.0
 40
3.25
  0
CIRCLE
  8
0
 62
0
 10
-429.942481812
 20
827.235657371
 30
0.0
 40
3.25
  0
CIRCLE
  8
0
 62
0
 10
-328.000003419
 20
290.730353231
 30
0.0
 40
2.0
  0
CIRCLE
  8
0
 62
0
 10
-328.000007074
 20
325.730353231
 30
0.0
 40
2.0
  0
CIRCLE
  8
0
 62
0
 10
-269.306061
 20
338.878690313
 30
0.0
 40
2.0
  0
LINE
  8
0
 62
0
 10
-253.185496
 20
300.55394
 30
0.0
 11
-300.038293
 21
300.55394
 31
0.0
  0
LINE
  8
0
 62
0
 10
-253.185496
 20
300.55394
 30
0.0
 11
-245.185496
 21
308.55394
 31
0.0
  0
LINE
  8
0
 62
0
 10
-300.038293
 20
300.55394
 30
0.0
 11
-308.038293
 21
308.55394
 31
0.0
  0
LINE
  8
0
 62
0
 10
-245.185496
 20
320.008006
 30
0.0
 11
-245.185496
 21
308.55394
 31
0.0
  0
LINE
  8
0
 62
0
 10
-308.038293
 20
308.55394
 30
0.0
 11
-308.038293
 21
320.008006
 31
0.0
  0
LINE
  8
0
 62
0
 10
-245.185496
 20
320.008006
 30
0.0
 11
-253.185496
 21
328.008006
 31
0.0
  0
LINE
  8
0
 62
0
 10
-300.038293
 20
328.008006
 30
0.0
 11
-308.038293
 21
320.008006
 31
0.0
  0
LINE
  8
0
 62
0
 10
-300.038293
 20
328.008006
 30
0.0
 11
-253.185496
 21
328.008006
 31
0.0
  0
CIRCLE
  8
0
 62
0
 10
-371.0
 20
317.0
 30
0.0
 40
1.2
  0
CIRCLE
  8
0
 62
0
 10
-594.840336047
 20
384.140200736
 30
0.0
 40
1.75
  0
CIRCLE
  8
0
 62
0
 10
-513.0
 20
317.0
 30
0.0
 40
1.2
  0
CIRCLE
  8
0
 62
0
 10
-500.0
 20
291.0
 30
0.0
 40
1.1
  0
CIRCLE
  8
0
 62
0
 10
-500.0
 20
275.710580838
 30
0.0
 40
3.25
  0
CIRCLE
  8
0
 62
0
 10
-748.365633213
 20
275.710580838
 30
0.0
 40
3.25
  0
CIRCLE
  8
0
 62
0
 10
-251.634366787
 20
275.710580838
 30
0.0
 40
3.25
  0
ENDBLK
  0
ENDSEC
  0
SECTION
  2
ENTITIES
  0
INSERT
  2
SHAPE2DVIEW001
  8
0
 62
0
 10
0.0
 20
0.0
 30
0.0
  0
ENDSEC
  0
EOF
